<svg aria-hidden="true" style="position: absolute; width: 0; height: 0; overflow: hidden;" version="1.1" xmlns="http://www.w3.org/2000/svg" xmlns:xlink="http://www.w3.org/1999/xlink">
<defs>
<symbol id="icon-user-circle-o" viewBox="0 0 28 28">
<path d="M14 0c7.734 0 14 6.266 14 14 0 7.688-6.234 14-14 14-7.75 0-14-6.297-14-14 0-7.734 6.266-14 14-14zM23.672 21.109c1.453-2 2.328-4.453 2.328-7.109 0-6.609-5.391-12-12-12s-12 5.391-12 12c0 2.656 0.875 5.109 2.328 7.109 0.562-2.797 1.922-5.109 4.781-5.109 1.266 1.234 2.984 2 4.891 2s3.625-0.766 4.891-2c2.859 0 4.219 2.312 4.781 5.109zM20 11c0-3.313-2.688-6-6-6s-6 2.688-6 6 2.688 6 6 6 6-2.688 6-6z"></path>
</symbol>
<symbol id="icon-user-circle" viewBox="0 0 28 28">
<path d="M23.797 20.922c-0.406-2.922-1.594-5.516-4.25-5.875-1.375 1.5-3.359 2.453-5.547 2.453s-4.172-0.953-5.547-2.453c-2.656 0.359-3.844 2.953-4.25 5.875 2.172 3.063 5.75 5.078 9.797 5.078s7.625-2.016 9.797-5.078zM20 10c0-3.313-2.688-6-6-6s-6 2.688-6 6 2.688 6 6 6 6-2.688 6-6zM28 14c0 7.703-6.25 14-14 14-7.734 0-14-6.281-14-14 0-7.734 6.266-14 14-14s14 6.266 14 14z"></path>
</symbol>
<symbol id="icon-superuser" viewBox="0 0 32 32">
<path fill="#2eace3" style="fill: var(--color1, #2eace3)" d="M27.817 19.305c-1.973 0.561-3.319 1.716-3.319 3.621v5.441c0 4.064-3.876 3.619-8.689 3.619h-0.74c-0.3 0-0.479-0.112-0.479-0.373v-1.864c0-0.259 0.16-0.372 0.46-0.372h0.6c2.88 0 4.9 0.633 4.9-1.68v-5.223c0-1.599 1.12-3.84 3.361-4.657 0.159-0.041 0.18-0.113 0.18-0.188s-0.040-0.185-0.18-0.26c-2.040-0.933-3.361-2.459-3.361-4.289v-5.9c0-2.276-2-4.549-4.879-4.549h-0.601c-0.3 0-0.44-0.112-0.44-0.372v-1.857c0-0.26 0.2-0.375 0.5-0.375h0.741c4.8 0 8.72 3.429 8.72 7.493v4.96c0 1.879 1.339 2.96 3.36 3.659 0.741 0.22 1.159 0.261 1.159 0.861v1.56c0.040 0.341-0.319 0.5-1.219 0.76zM10.789 31.96h-7.453c-0.3 0-0.448-0.075-0.448-0.336v-31.252c0-0.219 0.139-0.372 0.44-0.372h7.379c0.301 0 0.48 0.112 0.48 0.372v1.94c0 0.26-0.161 0.336-0.461 0.336h-3.296c-0.407 0-0.56 0.148-0.56 0.409v25.88c0 0.261 0.153 0.36 0.489 0.36h3.356c0.301 0 0.484 0.101 0.484 0.34v1.979c0.039 0.221-0.112 0.34-0.411 0.34zM17.289 14.581h-1.98c-0.483 0-0.856-0.375-0.856-0.787v-1.791c0-0.447 0.409-0.78 0.856-0.78h1.98c0.479 0 0.856 0.369 0.856 0.78v1.791c0 0.448-0.413 0.784-0.86 0.784z"></path>
</symbol>
<symbol id="icon-gravatar" viewBox="0 0 32 32">
<path fill="#1e8cbe" style="fill: var(--color2, #1e8cbe)" d="M16 0c-1.768 0-3.2 1.432-3.2 3.2v11.2c0 1.765 1.432 3.197 3.2 3.197s3.2-1.432 3.2-3.197v-7.453c3.727 1.32 6.399 4.872 6.399 9.052 0 5.3-4.3 9.599-9.599 9.599s-9.599-4.297-9.599-9.597c0-2.652 1.073-5.052 2.811-6.788 1.251-1.251 1.251-3.277 0-4.528s-3.277-1.251-4.528 0c-2.892 2.897-4.684 6.897-4.684 11.316 0 8.836 7.164 16 16 16s16-7.164 16-16-7.164-16-16-16z"></path>
</symbol>
</defs>
</svg>
